<svg width="148mm" height="64mm" viewBox="0 0 148 64" xmlns:xlink="http://www.w3.org/1999/xlink" xmlns="http://www.w3.org/2000/svg"><defs><linearGradient id="f"><stop offset="0" stop-color="#f0f"/><stop offset="1" stop-color="#f0f" stop-opacity="0"/></linearGradient><linearGradient id="e"><stop offset="0" stop-color="#f0f"/><stop offset="1" stop-color="#f0f" stop-opacity="0"/></linearGradient><linearGradient id="d"><stop offset="0" stop-color="#f0f"/><stop offset="1" stop-color="#f0f" stop-opacity="0"/></linearGradient><linearGradient id="c"><stop offset="0" stop-color="#f0f"/><stop offset="1" stop-color="#f0f" stop-opacity="0"/></linearGradient><linearGradient id="b"><stop offset="0" stop-color="#f0f"/><stop offset="1" stop-color="#f0f" stop-opacity="0"/></linearGradient><linearGradient id="a"><stop offset="0" stop-color="#f0f"/><stop offset="1" stop-color="#f0f" stop-opacity="0"/></linearGradient><linearGradient xlink:href="#a" id="g" x1="27.17" y1="124.575" x2="66.881" y2="138.603" gradientUnits="userSpaceOnUse"/><linearGradient xlink:href="#b" id="j" x1="64.581" y1="147.041" x2="92.311" y2="155.432" gradientUnits="userSpaceOnUse"/><linearGradient xlink:href="#c" id="k" x1="90.122" y1="154.338" x2="106.541" y2="160.176" gradientUnits="userSpaceOnUse"/><linearGradient xlink:href="#d" id="l" x1="113.838" y1="157.257" x2="119.676" y2="159.811" gradientUnits="userSpaceOnUse"/><linearGradient xlink:href="#e" id="m" x1="124.784" y1="162" x2="129.892" y2="168.568" gradientUnits="userSpaceOnUse"/><linearGradient xlink:href="#f" id="i" x1="313.037" y1="678.476" x2="763.975" y2="682.613" gradientUnits="userSpaceOnUse"/><path id="h" d="M233.054 624.695h433.011v132.386H233.054z"/></defs><g fill="#f0f"><path d="M48.527 144.486l-17.935-10.062-18.457 9.07 4.027-20.166-14.33-14.75 20.425-2.402 9.6-18.187 8.596 18.683 20.263 3.51-15.112 13.948z" transform="matrix(.86368 0 0 .80626 -.845 -54.101)" fill="url(#g)"/><text transform="matrix(.31649 0 0 .28792 -26.34 -144.693)" style="-inkscape-font-specification:'Vladimir Script, Normal';font-variant-ligatures:normal;font-variant-caps:normal;font-variant-numeric:normal;font-variant-east-asian:normal;white-space:pre;shape-inside:url(#h)" font-weight="400" font-size="85.333" font-family="Vladimir Script" fill="url(#i)"><tspan x="233.055" y="692.436">Star Spa</tspan></text><path d="M82.095 160.176l-10.715-2.548-8.173 7.382-.887-10.978-9.546-5.491 10.165-4.237 2.273-10.776 7.17 8.36 10.952-1.169-5.734 9.403z" fill="url(#j)" transform="translate(-12.04 -132.446)"/><path d="M102.527 160.176l-6.823-.686-4.433 5.232-1.456-6.7-6.346-2.6 5.923-3.456.51-6.838 5.118 4.565 6.661-1.627-2.76 6.277z" fill="url(#k)" transform="translate(-12.04 -132.446)"/><path d="M113.838 164.919l-4.21-3.056-4.904 1.736 1.605-4.949-3.166-4.127 5.202-.002 2.947-4.287 1.61 4.947 4.988 1.478-4.208 3.06z" fill="url(#l)" transform="translate(-12.04 -132.446)"/><path d="M126.973 165.284l-3.355-.776-2.541 2.324-.3-3.43-2.995-1.7 3.17-1.344.69-3.374 2.259 2.6 3.422-.386-1.775 2.95z" fill="url(#m)" transform="translate(-12.04 -132.446)"/></g></svg>