<svg width="148mm" height="64mm" viewBox="0 0 148 64" xmlns:xlink="http://www.w3.org/1999/xlink" xmlns="http://www.w3.org/2000/svg"><defs><linearGradient id="e"><stop offset="0" stop-color="#dfb3f6"/><stop offset="1" stop-color="#dfb3f6" stop-opacity="0"/></linearGradient><linearGradient id="d"><stop offset="0" stop-color="#dfb3f6"/><stop offset="1" stop-color="#dfb3f6" stop-opacity="0"/></linearGradient><linearGradient id="c"><stop offset="0" stop-color="#dfb3f6"/><stop offset="1" stop-color="#dfb3f6" stop-opacity="0"/></linearGradient><linearGradient id="b"><stop offset="0" stop-color="#dfb3f6"/><stop offset="1" stop-color="#dfb3f6" stop-opacity="0"/></linearGradient><linearGradient id="a"><stop offset="0" stop-color="#dfb3f6"/><stop offset="1" stop-color="#dfb3f6" stop-opacity="0"/></linearGradient><linearGradient xlink:href="#a" id="f" x1="32.24" y1="117.334" x2="68.571" y2="135.888" gradientUnits="userSpaceOnUse"/><linearGradient xlink:href="#b" id="h" x1="67.865" y1="147.77" x2="88.297" y2="169.297" gradientUnits="userSpaceOnUse"/><linearGradient xlink:href="#c" id="i" x1="94.5" y1="155.068" x2="102.892" y2="171.487" gradientUnits="userSpaceOnUse"/><linearGradient xlink:href="#d" id="j" x1="110.554" y1="157.622" x2="112.378" y2="175.865" gradientUnits="userSpaceOnUse"/><linearGradient xlink:href="#e" id="k" x1="123.689" y1="161.27" x2="118.581" y2="175.5" gradientUnits="userSpaceOnUse"/><path id="g" d="M233.054 624.695h433.011v132.386H233.054z"/></defs><g fill="#f0f"><path d="M48.527 144.486l-17.935-10.062-18.457 9.07 4.027-20.166-14.33-14.75 20.425-2.402 9.6-18.187 8.596 18.683 20.263 3.51-15.112 13.948z" transform="matrix(.86368 0 0 .80626 -.845 -54.101)" fill="url(#f)"/><text transform="matrix(.31649 0 0 .28792 -26.34 -144.693)" style="-inkscape-font-specification:'Vladimir Script, Normal';font-variant-ligatures:normal;font-variant-caps:normal;font-variant-numeric:normal;font-variant-east-asian:normal;white-space:pre;shape-inside:url(#g)" font-weight="400" font-size="85.333" font-family="Vladimir Script" fill="#dfb3f6"><tspan x="233.055" y="692.436">Star Spa</tspan></text><path d="M82.095 160.176l-10.715-2.548-8.173 7.382-.887-10.978-9.546-5.491 10.165-4.237 2.273-10.776 7.17 8.36 10.952-1.169-5.734 9.403z" fill="url(#h)" transform="translate(-12.04 -132.446)"/><path d="M102.527 160.176l-6.823-.686-4.433 5.232-1.456-6.7-6.346-2.6 5.923-3.456.51-6.838 5.118 4.565 6.661-1.627-2.76 6.277z" fill="url(#i)" transform="translate(-12.04 -132.446)"/><path d="M113.838 164.919l-4.21-3.056-4.904 1.736 1.605-4.949-3.166-4.127 5.202-.002 2.947-4.287 1.61 4.947 4.988 1.478-4.208 3.06z" fill="url(#j)" transform="translate(-12.04 -132.446)"/><path d="M126.973 165.284l-3.355-.776-2.541 2.324-.3-3.43-2.995-1.7 3.17-1.344.69-3.374 2.259 2.6 3.422-.386-1.775 2.95z" fill="url(#k)" transform="translate(-12.04 -132.446)"/></g></svg>