<?xml version="1.0" encoding="UTF-8" standalone="no"?>
<svg
   viewBox="0 0 100 100"
   version="1.1"
   id="svg3449"
   sodipodi:docname="instagram.svg"
   inkscape:version="1.2.2 (732a01da63, 2022-12-09)"
   xmlns:inkscape="http://www.inkscape.org/namespaces/inkscape"
   xmlns:sodipodi="http://sodipodi.sourceforge.net/DTD/sodipodi-0.dtd"
   xmlns="http://www.w3.org/2000/svg"
   xmlns:svg="http://www.w3.org/2000/svg">
  <sodipodi:namedview
     id="namedview3451"
     pagecolor="#ffffff"
     bordercolor="#000000"
     borderopacity="0.25"
     inkscape:showpageshadow="2"
     inkscape:pageopacity="0.0"
     inkscape:pagecheckerboard="0"
     inkscape:deskcolor="#d1d1d1"
     showgrid="false"
     inkscape:zoom="8.14"
     inkscape:cx="50.061425"
     inkscape:cy="50"
     inkscape:window-width="1554"
     inkscape:window-height="1030"
     inkscape:window-x="224"
     inkscape:window-y="0"
     inkscape:window-maximized="0"
     inkscape:current-layer="svg3449" />
  <defs
     id="defs3440">
    <style
       id="style3438">.cls-1{fill:#dfb3f6;}</style>
  </defs>
  <g
     id="ELEMENTS"
     style="fill:#dfb3f6;fill-opacity:1">
    <path
       class="cls-1"
       d="M70,27.25a4.42,4.42,0,1,0,4.42,4.42A4.41,4.41,0,0,0,70,27.25Z"
       id="path3442"
       style="fill:#dfb3f6;fill-opacity:1" />
    <path
       class="cls-1"
       d="M50.31,32.92A18.56,18.56,0,1,0,68.87,51.48,18.58,18.58,0,0,0,50.31,32.92Zm0,30.45A11.89,11.89,0,1,1,62.2,51.48,11.9,11.9,0,0,1,50.31,63.37Z"
       id="path3444"
       style="fill:#dfb3f6;fill-opacity:1" />
    <path
       class="cls-1"
       d="M65.05,89.17H35A22.67,22.67,0,0,1,12.31,66.53V36.43A22.67,22.67,0,0,1,35,13.79h30.1A22.67,22.67,0,0,1,87.69,36.43v30.1A22.67,22.67,0,0,1,65.05,89.17ZM35,20.89A15.56,15.56,0,0,0,19.4,36.43v30.1A15.57,15.57,0,0,0,35,82.08h30.1A15.57,15.57,0,0,0,80.6,66.53V36.43A15.56,15.56,0,0,0,65.05,20.89Z"
       id="path3446"
       style="fill:#dfb3f6;fill-opacity:1" />
  </g>
</svg>
